<svg xmlns="http://www.w3.org/2000/svg" width="78" height="60" viewBox="0 0 78 60" fill="none"><circle cx="30" cy="30" r="30" fill="white"></circle><g clip-path="url(#clip0_4_1059)"><path d="M42.7295 45.2606C44.6445 43.4755 44.9394 40.6794 43.3881 39.0154C41.8369 37.3513 39.027 37.4495 37.1121 39.2346C35.1971 41.0197 34.9022 43.8158 36.4534 45.4798C38.0046 47.1439 40.8145 47.0458 42.7295 45.2606Z" fill="#1B0B0D"></path><path d="M68.0672 45.2626C69.9822 43.4775 70.2771 40.6814 68.7258 39.0173C67.1746 37.3533 64.3647 37.4514 62.4498 39.2365C60.5348 41.0216 60.2399 43.8177 61.7911 45.4818C63.3424 47.1458 66.1523 47.0477 68.0672 45.2626Z" fill="#1B0B0D"></path><path d="M22.6367 23.4121C22.6367 22.307 21.7409 21.4111 20.6357 21.4111C19.5306 21.4111 18.6348 22.307 18.6348 23.4121C18.6348 24.5172 19.5306 25.4131 20.6357 25.4131C21.7409 25.4131 22.6367 24.5172 22.6367 23.4121Z" fill="#1B0B0D"></path><path d="M58.6039 41.8287C59.3152 38.3131 62.6363 35.5193 66.2059 35.5193C69.643 35.5193 72.1203 38.1104 72.0523 41.442C75.7695 41.5393 76.8043 36.6443 76.8043 36.6443C77.1172 35.2756 77.5848 32.6072 77.9762 29.9881C78.1045 29.1794 78.0059 28.3511 77.6914 27.5951C76.7197 25.3268 75.5454 23.1508 74.1828 21.0936C72.8937 19.1705 70.7316 18.0314 68.2637 17.9904C66.7918 17.967 65.3469 17.9529 64.2559 17.9529L64.2465 17.9436C64.1059 15.5904 62.3902 13.7881 59.982 13.5725C58.4152 13.433 52.209 13.3311 49.2301 13.3311C48.0465 13.3311 46.3484 13.3475 44.6305 13.3756V13.3686H44.6164H23.9609C23.698 13.3684 23.4377 13.4201 23.1948 13.5206C22.9519 13.6211 22.7312 13.7686 22.5453 13.9545C22.3594 14.1403 22.212 14.3611 22.1114 14.604C22.0109 14.8469 21.9592 15.1072 21.9594 15.3701V15.3795C21.9594 15.9079 22.1693 16.4146 22.5429 16.7882C22.9165 17.1618 23.4232 17.3717 23.9516 17.3717H28.1152C28.6166 17.4086 29.0854 17.6338 29.4278 18.002C29.7701 18.3701 29.9605 18.8541 29.9609 19.3568V19.3674C29.9617 19.6305 29.9106 19.8912 29.8105 20.1346C29.7104 20.378 29.5633 20.5992 29.3776 20.7857C29.1919 20.9721 28.9713 21.1201 28.7283 21.2212C28.4854 21.3223 28.2249 21.3745 27.9617 21.3748H25.8266C25.296 21.3748 24.7872 21.5856 24.4121 21.9607C24.0369 22.3359 23.8262 22.8447 23.8262 23.3752C23.826 23.638 23.8776 23.8982 23.9781 24.1411C24.0786 24.3839 24.2259 24.6046 24.4117 24.7904C24.5974 24.9763 24.818 25.1238 25.0608 25.2244C25.3036 25.325 25.5638 25.3768 25.8266 25.3768H27.9617C28.4926 25.3768 29.0017 25.5876 29.377 25.963C29.7524 26.3384 29.9633 26.8475 29.9633 27.3783C29.9633 27.9092 29.7524 28.4183 29.377 28.7936C29.0017 29.169 28.4926 29.3799 27.9617 29.3799H19.9742C19.4436 29.3799 18.9346 29.5906 18.5593 29.9657C18.184 30.3408 17.973 30.8496 17.9727 31.3803C17.9727 31.9111 18.1835 32.4202 18.5589 32.7956C18.9343 33.171 19.4434 33.3818 19.9742 33.3818H27.9617C28.4926 33.3818 29.0017 33.5927 29.377 33.9681C29.7524 34.3434 29.9633 34.8526 29.9633 35.3834C29.9627 35.9138 29.7515 36.4223 29.3762 36.7972C29.0009 37.1721 28.4922 37.3826 27.9617 37.3826H25.4914C24.9609 37.3826 24.4521 37.5934 24.0769 37.9685C23.7018 38.3437 23.491 38.8525 23.491 39.383C23.491 39.9137 23.7017 40.4226 24.0768 40.7979C24.452 41.1732 24.9608 41.3843 25.4914 41.3846L33.3734 41.3787L34.0285 39.7463C35.3703 37.2713 38.0398 35.5182 40.8664 35.5182C44.4371 35.5182 46.973 38.3143 46.6941 41.8322H58.6027M38.7512 22.3064H36.0652C36.0627 22.3067 36.0603 22.3077 36.0584 22.3094C36.0565 22.3111 36.0552 22.3133 36.0547 22.3158L35.8074 24.0736C35.8071 24.075 35.807 24.0765 35.8073 24.0779C35.8076 24.0794 35.8083 24.0807 35.8092 24.0818C35.8101 24.083 35.8112 24.0839 35.8126 24.0845C35.8139 24.0851 35.8153 24.0854 35.8168 24.0854H37.816C37.9141 24.0826 38.0117 24.1017 38.1015 24.1414C38.1912 24.1811 38.2711 24.2403 38.3351 24.3147C38.399 24.3892 38.4456 24.477 38.4714 24.5717C38.4972 24.6664 38.5015 24.7657 38.484 24.8623C38.4497 25.0746 38.3425 25.2684 38.1808 25.4102C38.0191 25.552 37.813 25.633 37.598 25.6393H35.5965C35.594 25.6392 35.5917 25.64 35.5897 25.6415C35.5878 25.643 35.5865 25.6451 35.5859 25.6475L35.2273 28.201C35.1931 28.4133 35.0859 28.6071 34.9242 28.7489C34.7625 28.8907 34.5564 28.9717 34.3414 28.9779C34.2433 28.9808 34.1458 28.9616 34.0561 28.9219C33.9663 28.8822 33.8866 28.823 33.8227 28.7485C33.7587 28.6741 33.7123 28.5862 33.6867 28.4915C33.6611 28.3968 33.6569 28.2975 33.6746 28.201L34.6051 21.5775C34.6419 21.3533 34.7556 21.1488 34.9267 20.9992C35.0977 20.8495 35.3154 20.764 35.5426 20.7572H38.968C39.0661 20.7544 39.1636 20.7735 39.2533 20.8132C39.3431 20.8529 39.4228 20.9122 39.4867 20.9866C39.5506 21.0611 39.5971 21.1489 39.6227 21.2436C39.6483 21.3384 39.6524 21.4376 39.6348 21.5342C39.6 21.7455 39.4929 21.9381 39.3316 22.079C39.1704 22.2199 38.9652 22.3003 38.7512 22.3064ZM45.9301 21.2846C46.2091 21.5321 46.4055 21.8594 46.4926 22.2221C46.59 22.633 46.6059 23.059 46.5395 23.476C46.458 24.1249 46.1924 24.7369 45.7742 25.2396C45.5188 25.5416 45.1944 25.7776 44.8285 25.9275C44.8269 25.9293 44.8259 25.9316 44.8259 25.934C44.8259 25.9364 44.8269 25.9387 44.8285 25.9404L45.4941 27.8611C45.6734 28.3768 45.2129 28.9779 44.6398 28.9779H44.6023C44.4633 28.982 44.3266 28.9417 44.212 28.8629C44.0974 28.7841 44.0108 28.6709 43.9648 28.5396L43.1598 26.1959C43.1586 26.1941 43.1571 26.1927 43.1552 26.1917C43.1534 26.1906 43.1513 26.1901 43.1492 26.19H41.4383C41.4359 26.1902 41.4336 26.191 41.4317 26.1925C41.4298 26.194 41.4284 26.196 41.4277 26.1982L41.1465 28.1998C41.1122 28.4121 41.005 28.6059 40.8433 28.7477C40.6816 28.8895 40.4755 28.9705 40.2605 28.9768C40.1625 28.9796 40.065 28.9605 39.9752 28.9208C39.8855 28.8811 39.8057 28.8218 39.7418 28.7474C39.6779 28.6729 39.6314 28.5851 39.6058 28.4903C39.5802 28.3956 39.5761 28.2963 39.5938 28.1998L40.5242 21.5764C40.5611 21.3521 40.6748 21.1477 40.8458 20.998C41.0168 20.8484 41.2346 20.7628 41.4617 20.7561H44.1102C44.1102 20.7561 45.2727 20.7197 45.9301 21.2846ZM53.2191 21.4791C53.1873 21.6774 53.0872 21.8584 52.9362 21.9909C52.7851 22.1233 52.5926 22.1988 52.3918 22.2045H49.3109C49.3086 22.2046 49.3063 22.2055 49.3044 22.2069C49.3025 22.2084 49.3011 22.2104 49.3004 22.2127L49.0555 23.9518C49.0551 23.9532 49.0551 23.9546 49.0554 23.9561C49.0557 23.9575 49.0563 23.9588 49.0572 23.96C49.0581 23.9611 49.0593 23.962 49.0606 23.9626C49.0619 23.9632 49.0634 23.9635 49.0648 23.9635H51.4578C51.5495 23.9608 51.6405 23.9786 51.7244 24.0156C51.8083 24.0526 51.8828 24.1079 51.9426 24.1774C52.0024 24.247 52.0458 24.329 52.0698 24.4175C52.0938 24.5059 52.0977 24.5987 52.0812 24.6889C52.0494 24.8872 51.9493 25.0682 51.7983 25.2006C51.6472 25.3331 51.4547 25.4086 51.2539 25.4143H48.8598C48.8574 25.4144 48.8551 25.4152 48.8532 25.4167C48.8513 25.4182 48.8499 25.4202 48.8492 25.4225L48.5551 27.5154C48.5551 27.5183 48.5561 27.5212 48.5581 27.5233C48.56 27.5255 48.5627 27.5269 48.5656 27.5271H51.6441C51.7358 27.5244 51.8269 27.5422 51.9107 27.5793C51.9946 27.6163 52.0692 27.6716 52.1289 27.7411C52.1887 27.8106 52.2321 27.8926 52.2561 27.9811C52.2801 28.0696 52.284 28.1623 52.2676 28.2525C52.2357 28.4509 52.1356 28.6319 51.9846 28.7643C51.8336 28.8967 51.641 28.9723 51.4402 28.9779H47.6199C47.5168 28.9794 47.4147 28.9581 47.3208 28.9157C47.2268 28.8733 47.1433 28.8107 47.0762 28.7325C47.0091 28.6542 46.9601 28.5621 46.9325 28.4628C46.905 28.3634 46.8996 28.2593 46.9168 28.1576L47.8414 21.5811C47.8783 21.3568 47.992 21.1524 48.163 21.0027C48.334 20.8531 48.5518 20.7675 48.7789 20.7607H52.598C52.6888 20.7586 52.7789 20.7765 52.8619 20.8133C52.9449 20.8501 53.0187 20.9048 53.078 20.9734C53.1374 21.0421 53.1808 21.123 53.2052 21.2105C53.2296 21.2979 53.2344 21.3896 53.2191 21.4791ZM59.6188 21.4791C59.5869 21.6774 59.4868 21.8584 59.3358 21.9909C59.1847 22.1233 58.9922 22.1988 58.7914 22.2045H55.7105C55.7082 22.2046 55.7059 22.2055 55.704 22.2069C55.7021 22.2084 55.7007 22.2104 55.7 22.2127L55.4562 23.9518C55.4559 23.9532 55.4559 23.9546 55.4562 23.9561C55.4565 23.9575 55.4571 23.9588 55.458 23.96C55.4589 23.9611 55.4601 23.962 55.4614 23.9626C55.4627 23.9632 55.4642 23.9635 55.4656 23.9635H57.8586C57.9502 23.9608 58.0413 23.9786 58.1252 24.0156C58.2091 24.0526 58.2836 24.1079 58.3434 24.1774C58.4031 24.247 58.4466 24.329 58.4706 24.4175C58.4946 24.5059 58.4985 24.5987 58.482 24.6889C58.4502 24.8872 58.3501 25.0682 58.1991 25.2006C58.048 25.3331 57.8555 25.4086 57.6547 25.4143H55.2594C55.257 25.4144 55.2547 25.4152 55.2528 25.4167C55.2509 25.4182 55.2495 25.4202 55.2488 25.4225L54.9547 27.5154C54.9547 27.5183 54.9557 27.5212 54.9577 27.5233C54.9596 27.5255 54.9623 27.5269 54.9652 27.5271H58.0438C58.1354 27.5244 58.2265 27.5422 58.3104 27.5793C58.3942 27.6163 58.4688 27.6716 58.5285 27.7411C58.5883 27.8106 58.6318 27.8926 58.6557 27.9811C58.6797 28.0696 58.6836 28.1623 58.6672 28.2525C58.6353 28.4509 58.5353 28.6319 58.3842 28.7643C58.2332 28.8967 58.0406 28.9723 57.8398 28.9779H54.0195C53.9165 28.9794 53.8143 28.9581 53.7204 28.9157C53.6264 28.8733 53.5429 28.8107 53.4758 28.7325C53.4087 28.6542 53.3597 28.5621 53.3321 28.4628C53.3046 28.3634 53.2992 28.2593 53.3164 28.1576L54.241 21.5811C54.2779 21.3568 54.3916 21.1524 54.5626 21.0027C54.7336 20.8531 54.9514 20.7675 55.1785 20.7607H58.9977C59.0884 20.7586 59.1785 20.7765 59.2615 20.8133C59.3445 20.8501 59.4183 20.9048 59.4776 20.9734C59.537 21.0421 59.5805 21.123 59.6048 21.2105C59.6292 21.2979 59.634 21.3896 59.6188 21.4791ZM64.0719 20.7279C65.1184 20.7279 66.473 20.742 67.8324 20.7643C69.4801 20.7912 70.9215 21.5482 71.7863 22.8396C72.7101 24.2323 73.5404 25.6847 74.2719 27.1873C74.6586 27.9748 73.9473 29.0002 73.0156 29.0002H63.0254L64.0719 20.7279Z" fill="#1B0B0D"></path><path d="M43.4824 24.7402H41.6309L41.9824 22.2043H43.8328C43.8328 22.2043 45.191 22.1164 44.9684 23.4723C44.9742 23.4723 44.8184 24.7402 43.4824 24.7402Z" fill="#1B0B0D"></path></g><defs><clipPath id="clip0_4_1059"><rect width="60" height="60" fill="white" transform="translate(18)"></rect></clipPath></defs></svg>