<svg xmlns="http://www.w3.org/2000/svg" width="78" height="60" viewBox="0 0 78 60" fill="none"><circle cx="30" cy="30" r="30" fill="white"></circle><g clip-path="url(#clip0_4_1069)"><path d="M61.4023 37.0541C61.4005 37.7351 61.6403 38.3946 62.0792 38.9154L67.0919 36.1446C66.8741 35.4869 66.4294 34.9282 65.8373 34.5683C65.2453 34.2084 64.5446 34.0708 63.8604 34.1802C63.1763 34.2895 62.5533 34.6387 62.103 35.1652C61.6526 35.6917 61.4043 36.3613 61.4023 37.0541Z" fill="#1B0B0D"></path><path d="M44.8061 30.0002C44.8061 35.4595 46.4124 40.7938 49.4186 45.341L47.3433 46.4865C44.0452 41.6222 42.2674 35.8829 42.2422 29.9992C42.2432 26.2569 42.9704 22.5504 44.3835 19.0852C45.1835 17.1344 46.1761 15.2686 47.3463 13.5156L49.4186 14.6595C46.4124 19.2067 44.8061 24.541 44.8061 30.0002Z" stroke="#1B0B0D"></path><path d="M76.6551 30.0004L52.2242 16.4988C49.5824 20.5009 48.1699 25.1949 48.1699 30.0001C48.1699 34.8053 49.5824 39.4993 52.2242 43.5013L59.168 39.6635C58.7532 38.8602 58.5345 37.9655 58.5356 37.0533C58.5356 37.0532 58.5356 37.053 58.5356 37.0529L59.2856 37.0539L76.6551 30.0004ZM76.6551 30.0004L69.268 34.0865C68.7305 33.1903 67.9569 32.4519 67.025 31.9565L76.6551 30.0004ZM55.1836 30.6761L55.1849 30.6761C56.2146 30.6726 57.2009 30.2611 57.9277 29.5318C58.6546 28.8025 59.0627 27.8148 59.0627 26.7851L59.0627 26.7839C59.0614 26.0154 58.8322 25.2645 58.4042 24.6263C57.9762 23.988 57.3685 23.491 56.658 23.1981C55.9475 22.9052 55.1661 22.8296 54.4126 22.9808C53.6591 23.132 52.9674 23.5032 52.4249 24.0475C51.8824 24.5919 51.5135 25.2848 51.3648 26.0388C51.2162 26.7928 51.2945 27.574 51.5897 28.2835C51.885 28.993 52.3841 29.599 53.0238 30.0249C53.6635 30.4507 54.4151 30.6774 55.1836 30.6761Z" fill="#1B0B0D" stroke="#1B0B0D" stroke-width="1.5"></path><path d="M55.184 25.7695C54.9817 25.7685 54.7837 25.8276 54.615 25.9393C54.4464 26.0511 54.3148 26.2104 54.2369 26.3971C54.159 26.5838 54.1383 26.7894 54.1775 26.9879C54.2167 27.1863 54.314 27.3686 54.4571 27.5117C54.6001 27.6547 54.7824 27.752 54.9809 27.7912C55.1794 27.8305 55.385 27.8098 55.5717 27.7319C55.7584 27.654 55.9177 27.5224 56.0294 27.3537C56.1412 27.1851 56.2003 26.9871 56.1992 26.7848C56.1987 26.5157 56.0915 26.2578 55.9012 26.0675C55.711 25.8772 55.4531 25.7701 55.184 25.7695Z" fill="#1B0B0D"></path><path d="M37.1845 19.5409H41.4252C41.6685 18.8217 41.9434 18.1238 42.2501 17.4258H37.1845C36.904 17.4258 36.635 17.5372 36.4367 17.7355C36.2383 17.9339 36.1269 18.2028 36.1269 18.4833C36.1269 18.7638 36.2383 19.0328 36.4367 19.2311C36.635 19.4295 36.904 19.5409 37.1845 19.5409Z" fill="#1B0B0D"></path><path d="M26.5907 17.4268C26.3102 17.4268 26.0412 17.5382 25.8429 17.7365C25.6446 17.9348 25.5332 18.2038 25.5332 18.4843C25.5332 18.7648 25.6446 19.0338 25.8429 19.2321C26.0412 19.4304 26.3102 19.5418 26.5907 19.5418H33.1782C33.4586 19.5418 33.7276 19.4304 33.926 19.2321C34.1243 19.0338 34.2357 18.7648 34.2357 18.4843C34.2357 18.2038 34.1243 17.9348 33.926 17.7365C33.7276 17.5382 33.4586 17.4268 33.1782 17.4268H26.5907Z" fill="#1B0B0D"></path><path d="M39.8383 26.3623H19.0575C18.777 26.3623 18.508 26.4737 18.3097 26.6721C18.1114 26.8704 18 27.1394 18 27.4199C18 27.7003 18.1114 27.9693 18.3097 28.1676C18.508 28.366 18.777 28.4774 19.0575 28.4774H39.6691C39.7008 27.7688 39.7537 27.0603 39.8383 26.3623Z" fill="#1B0B0D"></path><path d="M28.83 35.6796C28.83 35.9601 28.9415 36.2291 29.1398 36.4274C29.3381 36.6257 29.6071 36.7372 29.8876 36.7372H40.3573C40.1987 36.0392 40.0718 35.3306 39.9766 34.6221H29.8876C29.6071 34.6221 29.3381 34.7335 29.1398 34.9318C28.9415 35.1301 28.83 35.3991 28.83 35.6796Z" fill="#1B0B0D"></path><path d="M25.74 36.7401C26.0205 36.7401 26.2895 36.6287 26.4878 36.4303C26.6861 36.232 26.7975 35.963 26.7975 35.6825C26.7975 35.4021 26.6861 35.1331 26.4878 34.9347C26.2895 34.7364 26.0205 34.625 25.74 34.625H22.3368C22.0563 34.625 21.7873 34.7364 21.589 34.9347C21.3907 35.1331 21.2793 35.4021 21.2793 35.6825C21.2793 35.963 21.3907 36.232 21.589 36.4303C21.7873 36.6287 22.0563 36.7401 22.3368 36.7401H25.74Z" fill="#1B0B0D"></path><path d="M34.4345 43.0508C34.154 43.0508 33.885 43.1622 33.6867 43.3605C33.4883 43.5589 33.3769 43.8278 33.3769 44.1083C33.3769 44.3888 33.4883 44.6578 33.6867 44.8561C33.885 45.0545 34.154 45.1659 34.4345 45.1659H43.5082C43.1381 44.4679 42.7891 43.7699 42.4718 43.0508H34.4345Z" fill="#1B0B0D"></path><path d="M22.9032 45.1659H30.7523C31.0328 45.1659 31.3018 45.0545 31.5001 44.8561C31.6984 44.6578 31.8099 44.3888 31.8099 44.1083C31.8099 43.8278 31.6984 43.5589 31.5001 43.3605C31.3018 43.1622 31.0328 43.0508 30.7523 43.0508H22.9032C22.6227 43.0508 22.3537 43.1622 22.1554 43.3605C21.9571 43.5589 21.8457 43.8278 21.8457 44.1083C21.8457 44.3888 21.9571 44.6578 22.1554 44.8561C22.3537 45.0545 22.6227 45.1659 22.9032 45.1659Z" fill="#1B0B0D"></path></g><defs><clipPath id="clip0_4_1069"><rect width="60" height="60" fill="white" transform="translate(18)"></rect></clipPath></defs></svg>