<svg xmlns="http://www.w3.org/2000/svg" width="78" height="60" viewBox="0 0 78 60" fill="none"><circle cx="30" cy="30" r="30" fill="white"></circle><g clip-path="url(#clip0_4_1042)"><path d="M67.3862 40.5418C68.2695 40.2428 69.1869 40.0908 70.1111 40.0908C73.0571 40.0908 75.7346 41.6098 77.2678 44.0179C78.1801 43.9744 78.4139 43.4401 76.9481 41.53C74.5843 38.4498 71.2964 37.8527 68.9842 37.8838C68.839 37.4927 68.6888 37.0838 68.5326 36.6518C67.1156 32.7335 63.9332 30.8673 62.0601 30.0782L60.2547 24.8124C60.1456 24.4953 59.9151 24.2399 59.6111 24.1C59.3065 23.9593 58.963 23.9501 58.6516 24.0739L55.2736 25.4121C55.6167 25.5573 55.9192 25.7881 56.1518 26.0919C56.4665 26.5023 56.6212 26.9998 56.5987 27.5106L58.3612 26.8122L63.8567 42.8404C64.8091 41.7988 66.0127 41.0076 67.3862 40.5418Z" fill="#1B0B0D"></path><path d="M34.7076 16.3389H19.3014C18.5829 16.3389 18 16.9217 18 17.6409V32.8299C18 33.549 18.5829 34.1316 19.3014 34.1316H34.7076C35.4268 34.1316 36.0093 33.549 36.0093 32.8299V17.6409C36.0093 16.9217 35.4268 16.3389 34.7076 16.3389Z" fill="#1B0B0D"></path><path d="M40.866 46.246C39.577 42.4451 35.4516 40.4085 31.6502 41.6975C27.849 42.9859 25.813 47.1121 27.1017 50.9127C28.3904 54.7135 32.5157 56.7501 36.3172 55.4617C40.1181 54.1728 42.1546 50.0468 40.866 46.246ZM34.9055 51.2982C33.4041 51.8076 31.774 51.0022 31.2647 49.5013C30.7559 47.9996 31.5604 46.3692 33.0615 45.8604C34.5633 45.3514 36.1933 46.1565 36.7024 47.6573C37.2115 49.1591 36.4073 50.7891 34.9055 51.2982Z" fill="#1B0B0D"></path><path d="M62.6172 25.9502C62.6172 28.0048 64.2825 29.6698 66.3369 29.6698C68.3912 29.6698 68.3912 22.2305 66.3369 22.2305C64.2825 22.2305 62.6172 23.8955 62.6172 25.9502Z" fill="#1B0B0D"></path><path d="M63.2285 50.913C64.5169 54.7138 68.6429 56.7504 72.444 55.462C76.2452 54.1731 78.2815 50.0471 76.9928 46.246C75.7044 42.4451 71.5785 40.4085 67.7773 41.6975C63.9768 42.9862 61.9399 47.1124 63.2285 50.913ZM71.033 51.2985C69.5309 51.8078 67.9009 51.0025 67.3918 49.5016C66.8833 47.9999 67.6872 46.3695 69.1887 45.8607C70.6904 45.3517 72.3205 46.1568 72.8296 47.6576C73.3389 49.1594 72.5344 50.7894 71.033 51.2985Z" fill="#1B0B0D"></path><path d="M44.8971 39.0916V36.4084C44.8971 35.8697 44.4609 35.4326 43.9216 35.4326H24.0422C23.5035 35.4326 23.0668 35.87 23.0668 36.4084V39.0916C23.0668 39.6303 23.5035 40.067 24.0422 40.067H24.1501C23.0905 42.6669 21.4551 47.1742 21.4551 50.2308H25.6607C25.2948 48.4054 25.5363 46.5211 26.374 44.8241C27.3782 42.7914 29.1125 41.2704 31.2591 40.5432C32.143 40.243 33.0595 40.0922 33.9849 40.0922C37.6231 40.0922 40.8524 42.4079 42.0213 45.8556C42.5162 47.3156 42.5873 48.8179 42.3043 50.231H44.0179H48.0428H61.7878C61.5932 49.2597 61.5706 48.2721 61.7188 47.3043H46.1662C44.8216 44.5918 44.359 41.8224 44.2058 40.0205C44.6052 39.8978 44.8971 39.531 44.8971 39.0916Z" fill="#1B0B0D"></path><path d="M54.134 29.5803C52.613 29.3791 51.2621 29.0354 50.0534 28.5983H44.6998C44.7022 27.5982 44.7854 26.581 44.9114 25.58C41.6856 22.7217 40.7404 19.4198 40.6796 19.1967C40.3652 18.036 41.0536 16.8359 42.214 16.5215C42.4007 16.4709 42.5927 16.4451 42.7847 16.4451C43.7616 16.4451 44.6257 17.1029 44.8859 18.0446C44.912 18.1359 45.173 19.0023 45.8931 20.1106C45.9114 20.0184 45.9304 19.9242 45.9482 19.8344C46.5556 17.7273 45.7609 15.2053 43.954 14.7552C42.1464 14.3045 39.5267 15.2862 38.4608 18.386C37.0201 22.6568 36.7105 25.4366 37.2578 30.1397C37.8628 33.2526 39.8633 33.8141 41.6836 33.8695C41.7885 33.8819 41.8942 33.8905 42.0027 33.8905H49.1034L46.8404 43.0871C46.491 44.5064 47.3587 45.9397 48.7777 46.2891C48.9902 46.3412 49.2026 46.3664 49.4121 46.3664C50.6019 46.3664 51.6828 45.5587 51.9797 44.3518L55.0493 31.8765C55.2437 31.0868 55.0641 30.2518 54.5624 29.6117C54.5574 29.6052 54.5512 29.5996 54.5461 29.593C54.505 29.5954 54.4641 29.599 54.4223 29.599C54.3263 29.5993 54.2294 29.593 54.134 29.5803Z" fill="#1B0B0D"></path><path d="M56.1004 27.6403C56.2233 26.7131 55.5708 25.8618 54.6437 25.7391C46.366 24.6433 44.4995 18.4589 44.418 18.1741C44.17 17.2766 43.2419 16.7473 42.3429 16.9909C41.44 17.2357 40.9066 18.1658 41.1511 19.0687C41.2465 19.4201 43.6064 27.6948 54.1995 29.097C54.275 29.1071 54.3497 29.1118 54.4238 29.1118C55.26 29.1118 55.9878 28.4922 56.1004 27.6403Z" fill="#1B0B0D"></path><path d="M50.8535 11.5109L52.5422 12.54C52.715 12.2013 52.8548 11.8401 52.9449 11.4531C53.1248 10.6806 53.1026 9.909 52.9177 9.19043H50.8535V11.5109Z" fill="#1B0B0D"></path><path d="M47.2276 15.0113C47.8902 15.1657 48.5519 15.171 49.1801 15.0534L43.8087 11.9219C44.3255 13.4183 45.5718 14.6261 47.2276 15.0113Z" fill="#1B0B0D"></path><path d="M48.2184 4.15234C43.6921 4.15234 42.8145 5.95366 42.8145 10.8029L52.5598 16.4839L53.3453 13.5744L50.3886 11.7728V8.72453H55.5621C55.5624 8.72453 52.745 4.15234 48.2184 4.15234Z" fill="#1B0B0D"></path></g><defs><clipPath id="clip0_4_1042"><rect width="60" height="60" fill="white" transform="translate(18)"></rect></clipPath></defs></svg>