<svg xmlns="http://www.w3.org/2000/svg" id="eba49542-d8f5-4823-bdd3-eb167ca8a540" data-name="Layer 1" width="230" height="230" viewBox="0 0 230 230"><rect width="230" height="230" style="opacity:0"></rect><path d="M198.9229,107.6841c-4.6133-3.481-11.2149-6.6074-19.6231-9.2915-.86-.2746-1.7447-.5383-2.6324-.8006C169.7764,66.573,144.5506,43.5,114.5586,43.5S59.341,66.573,52.45,97.592c-.8877.2623-1.7724.526-2.6324.8006-8.4072,2.6841-15.0093,5.81-19.6216,9.2915-4.7739,3.6045-7.1948,7.4326-7.1948,11.3794,0,3.9453,2.4209,7.7734,7.1948,11.3779,4.6123,3.4805,11.2139,6.6074,19.6216,9.292,1.753.56,3.5791,1.087,5.4449,1.5952,9.5114,26.0485,32.4992,44.4722,59.2963,44.4722s49.7849-18.4237,59.2963-44.472c1.8661-.5082,3.6926-1.0356,5.4459-1.5954,8.41-2.6855,15.0117-5.8115,19.6221-9.292,4.7734-3.6045,7.1943-7.4326,7.1943-11.3779S203.6963,111.2891,198.9229,107.6841ZM114.5586,45.5c28.699,0,52.8975,21.8786,59.9186,51.4691-16.6385-4.6136-37.6648-7.1385-59.9181-7.1385S71.2784,92.3555,54.64,96.9691C61.6611,67.3786,85.8591,45.5,114.5586,45.5Zm61.98,69.15a75.82,75.82,0,0,1-4.2189,25.0277c-16.1979,4.2834-36.403,6.6168-57.7611,6.6168s-41.5642-2.3335-57.7623-6.6172A75.82,75.82,0,0,1,52.5781,114.65a76.7073,76.7073,0,0,1,1.5844-15.4755c16.6159-4.7461,37.8644-7.3443,60.3966-7.3443s43.78,2.5981,60.3956,7.344A76.71,76.71,0,0,1,176.5391,114.65ZM50.4258,137.8291c-8.1924-2.6172-14.5933-5.64-19.0249-8.9834-4.2466-3.2061-6.4-6.498-6.4-9.7822s2.1533-6.5772,6.4-9.7827c4.4316-3.3453,10.8325-6.3677,19.0249-8.9829.5095-.1627,1.04-.316,1.56-.4743A78.818,78.818,0,0,0,50.5781,114.65a77.9589,77.9589,0,0,0,3.8709,24.38C53.08,138.6431,51.7308,138.2457,50.4258,137.8291Zm64.1328,45.9717c-25.4891,0-47.4262-17.2592-56.9355-41.8491,16.1348,4.1077,35.9915,6.3432,56.936,6.3432s40.8-2.2355,56.9348-6.3431C161.9845,166.5417,140.0472,183.8008,114.5586,183.8008Zm83.1592-54.9551c-4.43,3.3438-10.8311,6.3652-19.0254,8.9834-1.3054.4167-2.6546.8141-4.0242,1.202a77.9568,77.9568,0,0,0,3.8709-24.3807,78.8231,78.8231,0,0,0-1.4074-14.8272c.52.1584,1.0509.3119,1.5607.4747,8.1924,2.6152,14.5928,5.6376,19.0254,8.9824,4.2461,3.2065,6.3994,6.498,6.3994,9.7832S201.9639,125.6387,197.7178,128.8457Z"></path></svg>