<svg xmlns="http://www.w3.org/2000/svg" id="fe4cd2dc-84e4-4940-b720-65d1aeb1be25" data-name="Layer 1" width="230" height="230" viewBox="0 0 230 230"><rect width="230" height="230" style="opacity:0"></rect><path d="M216.4062,50.6572A54.5531,54.5531,0,0,0,118.7811,61.66,54.537,54.537,0,0,0,62.5271,94.942a54.5437,54.5437,0,0,0-14.842,107.6674,55.0183,55.0183,0,0,0,12.1709,1.37,54.6172,54.6172,0,0,0,50.2512-33.5831c.9673.0516,1.9339.0811,2.8987.0811a54.6051,54.6051,0,0,0,51.3747-36.5233,54.8181,54.8181,0,0,0,5.9563.3437,54.54,54.54,0,0,0,46.0693-83.6407ZM87.7778,193.8643A52.5613,52.5613,0,1,1,61.7593,96.9a55.3627,55.3627,0,0,0-2.0684,6.931,54.5613,54.5613,0,0,0,41.1441,65.2763,55.3363,55.3363,0,0,0,7.1761,1.1207A52.1772,52.1772,0,0,1,87.7778,193.8643Zm21.0232-25.5614a53.3772,53.3772,0,0,1-7.5237-1.1457,52.5629,52.5629,0,0,1-39.6362-62.8838,53.3254,53.3254,0,0,1,2.2011-7.2562,52.5341,52.5341,0,0,1,47.1685,64.0053A53.3031,53.3031,0,0,1,108.801,168.3029Zm32.1267-7.9406a52.1788,52.1788,0,0,1-30.0438,8.0583,55.3625,55.3625,0,0,0,2.0775-6.9558A54.5166,54.5166,0,0,0,64.6321,95.0886a52.2336,52.2336,0,0,1,53.5131-31.4868c-.4137,1.342-.7932,2.6993-1.1071,4.0833a54.4906,54.4906,0,0,0,45.3127,66.004A52.1578,52.1578,0,0,1,140.9277,160.3623Zm23.2334-32.8418c-.3274,1.4435-.7246,2.8587-1.1646,4.2546a52.51,52.51,0,0,1-44.0072-63.6477c.3286-1.4493.7273-2.87,1.1695-4.2717,1.4574.2058,2.914.4522,4.3656.7815a52.5619,52.5619,0,0,1,39.6367,62.8833Zm34.1153-3.3037a52.2852,52.2852,0,0,1-33.2624,7.7979c.41-1.3318.786-2.6786,1.0973-4.0518a54.563,54.563,0,0,0-41.1445-65.2764c-1.382-.3134-2.7683-.5561-4.1555-.7616a52.5583,52.5583,0,1,1,77.4651,62.2919Z"></path></svg>