<svg xmlns="http://www.w3.org/2000/svg" width="20" height="21" viewBox="0 0 20 21" fill="none"><path d="M3.84667 15.8556C3.46278 15.8556 3.1425 15.7273 2.88583 15.4706C2.62917 15.214 2.50056 14.8934 2.5 14.509V5.53563C2.5 5.15174 2.62861 4.83146 2.88583 4.5748C3.14306 4.31813 3.46306 4.18952 3.84583 4.18896H16.1542C16.5375 4.18896 16.8575 4.31758 17.1142 4.5748C17.3708 4.83202 17.4994 5.1523 17.5 5.53563V14.5098C17.5 14.8931 17.3714 15.2134 17.1142 15.4706C16.8569 15.7279 16.5369 15.8562 16.1542 15.8556H3.84667ZM10 10.119L16.6667 5.7598L16.41 5.0223L10 9.18896L3.59 5.0223L3.33333 5.7598L10 10.119Z" fill="white"></path></svg>