<svg xmlns="http://www.w3.org/2000/svg" width="20" height="21" viewBox="0 0 20 21" fill="none"><path d="M5.51667 9.01364C6.71667 11.372 8.65 13.3053 11.0083 14.5053L12.8417 12.672C13.075 12.4386 13.4 12.372 13.6917 12.4636C14.625 12.772 15.625 12.9386 16.6667 12.9386C16.8877 12.9386 17.0996 13.0264 17.2559 13.1827C17.4122 13.339 17.5 13.551 17.5 13.772V16.6886C17.5 16.9097 17.4122 17.1216 17.2559 17.2779C17.0996 17.4342 16.8877 17.522 16.6667 17.522C12.9094 17.522 9.30609 16.0294 6.64932 13.3727C3.99256 10.7159 2.5 7.11254 2.5 3.35531C2.5 3.13429 2.5878 2.92233 2.74408 2.76605C2.90036 2.60977 3.11232 2.52197 3.33333 2.52197H6.25C6.47101 2.52197 6.68298 2.60977 6.83926 2.76605C6.99554 2.92233 7.08333 3.13429 7.08333 3.35531C7.08333 4.39697 7.25 5.39697 7.55833 6.33031C7.65 6.62197 7.58333 6.94697 7.35 7.18031L5.51667 9.01364Z" fill="white"></path></svg>