<svg xmlns="http://www.w3.org/2000/svg" width="20" height="21" viewBox="0 0 20 21" fill="none"><path d="M10.0003 9.60563C9.44779 9.60563 8.91789 9.38614 8.52719 8.99544C8.13649 8.60474 7.91699 8.07483 7.91699 7.5223C7.91699 6.96976 8.13649 6.43986 8.52719 6.04916C8.91789 5.65846 9.44779 5.43896 10.0003 5.43896C10.5529 5.43896 11.0828 5.65846 11.4735 6.04916C11.8642 6.43986 12.0837 6.96976 12.0837 7.5223C12.0837 7.79589 12.0298 8.06679 11.9251 8.31956C11.8204 8.57232 11.6669 8.80198 11.4735 8.99544C11.28 9.18889 11.0503 9.34235 10.7976 9.44705C10.5448 9.55174 10.2739 9.60563 10.0003 9.60563ZM10.0003 1.68896C8.45323 1.68896 6.9695 2.30355 5.87554 3.39751C4.78157 4.49147 4.16699 5.9752 4.16699 7.5223C4.16699 11.8973 10.0003 18.3556 10.0003 18.3556C10.0003 18.3556 15.8337 11.8973 15.8337 7.5223C15.8337 5.9752 15.2191 4.49147 14.1251 3.39751C13.0312 2.30355 11.5474 1.68896 10.0003 1.68896Z" fill="white"></path></svg>