<svg xmlns="http://www.w3.org/2000/svg" width="16" height="16" viewBox="0 0 16 16" fill="none"><g clip-path="url(#clip0_4_1258)"><path d="M5.9987 14.6663C6.36689 14.6663 6.66536 14.3679 6.66536 13.9997C6.66536 13.6315 6.36689 13.333 5.9987 13.333C5.63051 13.333 5.33203 13.6315 5.33203 13.9997C5.33203 14.3679 5.63051 14.6663 5.9987 14.6663Z" stroke="#B41405" stroke-width="1.5" stroke-linecap="round" stroke-linejoin="round"></path><path d="M13.3346 14.6663C13.7028 14.6663 14.0013 14.3679 14.0013 13.9997C14.0013 13.6315 13.7028 13.333 13.3346 13.333C12.9664 13.333 12.668 13.6315 12.668 13.9997C12.668 14.3679 12.9664 14.6663 13.3346 14.6663Z" stroke="#B41405" stroke-width="1.5" stroke-linecap="round" stroke-linejoin="round"></path><path d="M0.667969 0.666992H3.33464L5.1213 9.59366C5.18226 9.90059 5.34924 10.1763 5.593 10.3725C5.83676 10.5687 6.14177 10.673 6.45464 10.667H12.9346C13.2475 10.673 13.5525 10.5687 13.7963 10.3725C14.04 10.1763 14.207 9.90059 14.268 9.59366L15.3346 4.00033H4.0013" stroke="#B41405" stroke-width="1.5" stroke-linecap="round" stroke-linejoin="round"></path></g><defs><clipPath id="clip0_4_1258"><rect width="16" height="16" fill="white"></rect></clipPath></defs></svg>